<mxfile host="app.diagrams.net" agent="Mozilla/5.0 (Windows NT 10.0; Win64; x64) AppleWebKit/537.36 (KHTML, like Gecko) Chrome/134.0.0.0 Safari/537.36 Edg/134.0.0.0" version="26.1.1">
  <diagram name="Page-1" id="anX5HS--mqGYcmScdLSs">
    <mxGraphModel dx="1048" dy="607" grid="1" gridSize="10" guides="1" tooltips="1" connect="1" arrows="1" fold="1" page="1" pageScale="1" pageWidth="850" pageHeight="1100" math="0" shadow="0">
      <root>
        <mxCell id="0" />
        <mxCell id="1" parent="0" />
        <mxCell id="f_WdzD5xvdy1pwMIQnAW-1" value="&lt;h1&gt;&lt;b&gt;user&lt;/b&gt;&lt;/h1&gt;" style="rounded=0;whiteSpace=wrap;html=1;" vertex="1" parent="1">
          <mxGeometry x="180" y="190" width="80" height="50" as="geometry" />
        </mxCell>
        <mxCell id="f_WdzD5xvdy1pwMIQnAW-2" value="&lt;h1&gt;contact&lt;/h1&gt;" style="rounded=0;whiteSpace=wrap;html=1;" vertex="1" parent="1">
          <mxGeometry x="570" y="210" width="120" height="50" as="geometry" />
        </mxCell>
        <mxCell id="f_WdzD5xvdy1pwMIQnAW-3" value="&lt;u&gt;id&lt;/u&gt;" style="ellipse;whiteSpace=wrap;html=1;" vertex="1" parent="1">
          <mxGeometry x="10" y="100" width="50" height="40" as="geometry" />
        </mxCell>
        <mxCell id="f_WdzD5xvdy1pwMIQnAW-4" value="name" style="ellipse;whiteSpace=wrap;html=1;" vertex="1" parent="1">
          <mxGeometry x="60" y="60" width="60" height="40" as="geometry" />
        </mxCell>
        <mxCell id="f_WdzD5xvdy1pwMIQnAW-5" value="email" style="ellipse;whiteSpace=wrap;html=1;" vertex="1" parent="1">
          <mxGeometry x="140" y="50" width="50" height="40" as="geometry" />
        </mxCell>
        <mxCell id="f_WdzD5xvdy1pwMIQnAW-6" value="password" style="ellipse;whiteSpace=wrap;html=1;" vertex="1" parent="1">
          <mxGeometry x="210" y="50" width="70" height="50" as="geometry" />
        </mxCell>
        <mxCell id="f_WdzD5xvdy1pwMIQnAW-7" value="image" style="ellipse;whiteSpace=wrap;html=1;" vertex="1" parent="1">
          <mxGeometry x="280" y="77.5" width="60" height="52.5" as="geometry" />
        </mxCell>
        <mxCell id="f_WdzD5xvdy1pwMIQnAW-8" value="description" style="ellipse;whiteSpace=wrap;html=1;" vertex="1" parent="1">
          <mxGeometry x="340" y="125" width="70" height="50" as="geometry" />
        </mxCell>
        <mxCell id="f_WdzD5xvdy1pwMIQnAW-15" value="&lt;u&gt;role&lt;/u&gt;" style="ellipse;whiteSpace=wrap;html=1;" vertex="1" parent="1">
          <mxGeometry x="10" y="150" width="60" height="40" as="geometry" />
        </mxCell>
        <mxCell id="f_WdzD5xvdy1pwMIQnAW-16" value="&lt;u&gt;enabled&lt;/u&gt;" style="ellipse;whiteSpace=wrap;html=1;" vertex="1" parent="1">
          <mxGeometry x="10" y="210" width="60" height="40" as="geometry" />
        </mxCell>
        <mxCell id="f_WdzD5xvdy1pwMIQnAW-19" value="" style="endArrow=none;html=1;rounded=0;exitX=0.5;exitY=0;exitDx=0;exitDy=0;" edge="1" parent="1" source="f_WdzD5xvdy1pwMIQnAW-1" target="f_WdzD5xvdy1pwMIQnAW-5">
          <mxGeometry width="50" height="50" relative="1" as="geometry">
            <mxPoint x="330" y="250" as="sourcePoint" />
            <mxPoint x="380" y="200" as="targetPoint" />
          </mxGeometry>
        </mxCell>
        <mxCell id="f_WdzD5xvdy1pwMIQnAW-21" value="" style="endArrow=none;html=1;rounded=0;entryX=0.25;entryY=0;entryDx=0;entryDy=0;" edge="1" parent="1" source="f_WdzD5xvdy1pwMIQnAW-4" target="f_WdzD5xvdy1pwMIQnAW-1">
          <mxGeometry width="50" height="50" relative="1" as="geometry">
            <mxPoint x="340" y="250" as="sourcePoint" />
            <mxPoint x="390" y="200" as="targetPoint" />
          </mxGeometry>
        </mxCell>
        <mxCell id="f_WdzD5xvdy1pwMIQnAW-22" value="" style="endArrow=none;html=1;rounded=0;" edge="1" parent="1" target="f_WdzD5xvdy1pwMIQnAW-6">
          <mxGeometry width="50" height="50" relative="1" as="geometry">
            <mxPoint x="230" y="190" as="sourcePoint" />
            <mxPoint x="184" y="99" as="targetPoint" />
          </mxGeometry>
        </mxCell>
        <mxCell id="f_WdzD5xvdy1pwMIQnAW-23" value="" style="endArrow=none;html=1;rounded=0;exitX=0.75;exitY=0;exitDx=0;exitDy=0;" edge="1" parent="1" source="f_WdzD5xvdy1pwMIQnAW-1" target="f_WdzD5xvdy1pwMIQnAW-7">
          <mxGeometry width="50" height="50" relative="1" as="geometry">
            <mxPoint x="240" y="200" as="sourcePoint" />
            <mxPoint x="252" y="110" as="targetPoint" />
          </mxGeometry>
        </mxCell>
        <mxCell id="f_WdzD5xvdy1pwMIQnAW-24" value="" style="endArrow=none;html=1;rounded=0;" edge="1" parent="1" target="f_WdzD5xvdy1pwMIQnAW-8">
          <mxGeometry width="50" height="50" relative="1" as="geometry">
            <mxPoint x="260" y="200" as="sourcePoint" />
            <mxPoint x="303" y="135" as="targetPoint" />
          </mxGeometry>
        </mxCell>
        <mxCell id="f_WdzD5xvdy1pwMIQnAW-25" value="" style="endArrow=none;html=1;rounded=0;exitX=0;exitY=0.25;exitDx=0;exitDy=0;" edge="1" parent="1" source="f_WdzD5xvdy1pwMIQnAW-1" target="f_WdzD5xvdy1pwMIQnAW-3">
          <mxGeometry width="50" height="50" relative="1" as="geometry">
            <mxPoint x="270" y="210" as="sourcePoint" />
            <mxPoint x="355" y="173" as="targetPoint" />
          </mxGeometry>
        </mxCell>
        <mxCell id="f_WdzD5xvdy1pwMIQnAW-26" value="" style="endArrow=none;html=1;rounded=0;exitX=0;exitY=0.75;exitDx=0;exitDy=0;entryX=1;entryY=0.5;entryDx=0;entryDy=0;" edge="1" parent="1" source="f_WdzD5xvdy1pwMIQnAW-1" target="f_WdzD5xvdy1pwMIQnAW-15">
          <mxGeometry width="50" height="50" relative="1" as="geometry">
            <mxPoint x="190" y="213" as="sourcePoint" />
            <mxPoint x="65" y="142" as="targetPoint" />
          </mxGeometry>
        </mxCell>
        <mxCell id="f_WdzD5xvdy1pwMIQnAW-27" value="" style="endArrow=none;html=1;rounded=0;exitX=0;exitY=1;exitDx=0;exitDy=0;entryX=0.911;entryY=0.683;entryDx=0;entryDy=0;entryPerimeter=0;" edge="1" parent="1" source="f_WdzD5xvdy1pwMIQnAW-1" target="f_WdzD5xvdy1pwMIQnAW-16">
          <mxGeometry width="50" height="50" relative="1" as="geometry">
            <mxPoint x="188" y="232" as="sourcePoint" />
            <mxPoint x="80" y="180" as="targetPoint" />
          </mxGeometry>
        </mxCell>
        <mxCell id="f_WdzD5xvdy1pwMIQnAW-28" value="&lt;u&gt;cid&lt;/u&gt;" style="ellipse;whiteSpace=wrap;html=1;" vertex="1" parent="1">
          <mxGeometry x="460" y="125" width="60" height="45" as="geometry" />
        </mxCell>
        <mxCell id="f_WdzD5xvdy1pwMIQnAW-29" value="name" style="ellipse;whiteSpace=wrap;html=1;" vertex="1" parent="1">
          <mxGeometry x="510" y="81.25" width="60" height="45" as="geometry" />
        </mxCell>
        <mxCell id="f_WdzD5xvdy1pwMIQnAW-30" value="nickname" style="ellipse;whiteSpace=wrap;html=1;" vertex="1" parent="1">
          <mxGeometry x="590" y="75" width="60" height="50" as="geometry" />
        </mxCell>
        <mxCell id="f_WdzD5xvdy1pwMIQnAW-31" value="work" style="ellipse;whiteSpace=wrap;html=1;" vertex="1" parent="1">
          <mxGeometry x="670" y="78.75" width="60" height="50" as="geometry" />
        </mxCell>
        <mxCell id="f_WdzD5xvdy1pwMIQnAW-32" value="email" style="ellipse;whiteSpace=wrap;html=1;" vertex="1" parent="1">
          <mxGeometry x="740" y="110" width="70" height="50" as="geometry" />
        </mxCell>
        <mxCell id="f_WdzD5xvdy1pwMIQnAW-34" value="image" style="ellipse;whiteSpace=wrap;html=1;" vertex="1" parent="1">
          <mxGeometry x="750" y="170" width="90" height="50" as="geometry" />
        </mxCell>
        <mxCell id="f_WdzD5xvdy1pwMIQnAW-35" value="description" style="ellipse;whiteSpace=wrap;html=1;" vertex="1" parent="1">
          <mxGeometry x="750" y="250" width="90" height="80" as="geometry" />
        </mxCell>
        <mxCell id="f_WdzD5xvdy1pwMIQnAW-36" value="description" style="ellipse;whiteSpace=wrap;html=1;" vertex="1" parent="1">
          <mxGeometry x="750" y="250" width="90" height="80" as="geometry" />
        </mxCell>
        <mxCell id="f_WdzD5xvdy1pwMIQnAW-37" value="phone" style="ellipse;whiteSpace=wrap;html=1;" vertex="1" parent="1">
          <mxGeometry x="420" y="190" width="80" height="50" as="geometry" />
        </mxCell>
        <mxCell id="f_WdzD5xvdy1pwMIQnAW-38" value="" style="endArrow=none;html=1;rounded=0;entryX=0;entryY=0.5;entryDx=0;entryDy=0;exitX=1;exitY=0.5;exitDx=0;exitDy=0;" edge="1" parent="1" source="f_WdzD5xvdy1pwMIQnAW-37" target="f_WdzD5xvdy1pwMIQnAW-2">
          <mxGeometry width="50" height="50" relative="1" as="geometry">
            <mxPoint x="360" y="210" as="sourcePoint" />
            <mxPoint x="410" y="160" as="targetPoint" />
          </mxGeometry>
        </mxCell>
        <mxCell id="f_WdzD5xvdy1pwMIQnAW-39" value="" style="endArrow=none;html=1;rounded=0;entryX=0;entryY=0.25;entryDx=0;entryDy=0;exitX=1;exitY=1;exitDx=0;exitDy=0;" edge="1" parent="1" source="f_WdzD5xvdy1pwMIQnAW-28" target="f_WdzD5xvdy1pwMIQnAW-2">
          <mxGeometry width="50" height="50" relative="1" as="geometry">
            <mxPoint x="510" y="225" as="sourcePoint" />
            <mxPoint x="580" y="245" as="targetPoint" />
          </mxGeometry>
        </mxCell>
        <mxCell id="f_WdzD5xvdy1pwMIQnAW-41" value="" style="endArrow=none;html=1;rounded=0;entryX=0;entryY=0.25;entryDx=0;entryDy=0;" edge="1" parent="1" source="f_WdzD5xvdy1pwMIQnAW-29">
          <mxGeometry width="50" height="50" relative="1" as="geometry">
            <mxPoint x="560" y="130" as="sourcePoint" />
            <mxPoint x="580" y="233" as="targetPoint" />
            <Array as="points">
              <mxPoint x="590" y="210" />
            </Array>
          </mxGeometry>
        </mxCell>
        <mxCell id="f_WdzD5xvdy1pwMIQnAW-44" value="" style="endArrow=none;html=1;rounded=0;entryX=0;entryY=0.25;entryDx=0;entryDy=0;exitX=0.5;exitY=1;exitDx=0;exitDy=0;" edge="1" parent="1" source="f_WdzD5xvdy1pwMIQnAW-30">
          <mxGeometry width="50" height="50" relative="1" as="geometry">
            <mxPoint x="560" y="135" as="sourcePoint" />
            <mxPoint x="590" y="243" as="targetPoint" />
            <Array as="points" />
          </mxGeometry>
        </mxCell>
        <mxCell id="f_WdzD5xvdy1pwMIQnAW-45" value="" style="endArrow=none;html=1;rounded=0;entryX=0.5;entryY=0;entryDx=0;entryDy=0;" edge="1" parent="1" target="f_WdzD5xvdy1pwMIQnAW-2">
          <mxGeometry width="50" height="50" relative="1" as="geometry">
            <mxPoint x="710" y="135" as="sourcePoint" />
            <mxPoint x="600" y="253" as="targetPoint" />
            <Array as="points">
              <mxPoint x="710" y="130" />
            </Array>
          </mxGeometry>
        </mxCell>
        <mxCell id="f_WdzD5xvdy1pwMIQnAW-46" value="" style="endArrow=none;html=1;rounded=0;entryX=1;entryY=0;entryDx=0;entryDy=0;exitX=0;exitY=1;exitDx=0;exitDy=0;" edge="1" parent="1" source="f_WdzD5xvdy1pwMIQnAW-32" target="f_WdzD5xvdy1pwMIQnAW-2">
          <mxGeometry width="50" height="50" relative="1" as="geometry">
            <mxPoint x="720" y="145" as="sourcePoint" />
            <mxPoint x="640" y="220" as="targetPoint" />
            <Array as="points">
              <mxPoint x="750" y="150" />
              <mxPoint x="720" y="140" />
            </Array>
          </mxGeometry>
        </mxCell>
        <mxCell id="f_WdzD5xvdy1pwMIQnAW-48" value="" style="shape=link;html=1;rounded=0;" edge="1" parent="1" source="f_WdzD5xvdy1pwMIQnAW-2" target="f_WdzD5xvdy1pwMIQnAW-36">
          <mxGeometry width="100" relative="1" as="geometry">
            <mxPoint x="330" y="180" as="sourcePoint" />
            <mxPoint x="430" y="180" as="targetPoint" />
          </mxGeometry>
        </mxCell>
        <mxCell id="f_WdzD5xvdy1pwMIQnAW-49" value="" style="endArrow=none;html=1;rounded=0;entryX=0;entryY=0.5;entryDx=0;entryDy=0;exitX=1;exitY=0.5;exitDx=0;exitDy=0;" edge="1" parent="1" source="f_WdzD5xvdy1pwMIQnAW-2" target="f_WdzD5xvdy1pwMIQnAW-34">
          <mxGeometry width="50" height="50" relative="1" as="geometry">
            <mxPoint x="360" y="210" as="sourcePoint" />
            <mxPoint x="410" y="160" as="targetPoint" />
          </mxGeometry>
        </mxCell>
        <mxCell id="f_WdzD5xvdy1pwMIQnAW-50" value="has//usermany contact" style="rhombus;whiteSpace=wrap;html=1;" vertex="1" parent="1">
          <mxGeometry x="297.5" y="350" width="155" height="80" as="geometry" />
        </mxCell>
        <mxCell id="f_WdzD5xvdy1pwMIQnAW-51" value="" style="endArrow=none;html=1;rounded=0;exitX=1;exitY=1;exitDx=0;exitDy=0;entryX=0;entryY=0.5;entryDx=0;entryDy=0;" edge="1" parent="1" source="f_WdzD5xvdy1pwMIQnAW-1" target="f_WdzD5xvdy1pwMIQnAW-50">
          <mxGeometry width="50" height="50" relative="1" as="geometry">
            <mxPoint x="360" y="210" as="sourcePoint" />
            <mxPoint x="410" y="160" as="targetPoint" />
          </mxGeometry>
        </mxCell>
        <mxCell id="f_WdzD5xvdy1pwMIQnAW-52" value="" style="endArrow=none;html=1;rounded=0;entryX=0.5;entryY=1;entryDx=0;entryDy=0;exitX=1;exitY=0.5;exitDx=0;exitDy=0;" edge="1" parent="1" source="f_WdzD5xvdy1pwMIQnAW-50" target="f_WdzD5xvdy1pwMIQnAW-2">
          <mxGeometry width="50" height="50" relative="1" as="geometry">
            <mxPoint x="360" y="210" as="sourcePoint" />
            <mxPoint x="410" y="160" as="targetPoint" />
          </mxGeometry>
        </mxCell>
        <mxCell id="f_WdzD5xvdy1pwMIQnAW-53" value="1" style="text;html=1;align=center;verticalAlign=middle;whiteSpace=wrap;rounded=0;" vertex="1" parent="1">
          <mxGeometry x="220" y="290" width="60" height="30" as="geometry" />
        </mxCell>
        <mxCell id="f_WdzD5xvdy1pwMIQnAW-54" value="many&lt;div&gt;&lt;br&gt;&lt;/div&gt;" style="text;html=1;align=center;verticalAlign=middle;whiteSpace=wrap;rounded=0;" vertex="1" parent="1">
          <mxGeometry x="560" y="300" width="60" height="30" as="geometry" />
        </mxCell>
      </root>
    </mxGraphModel>
  </diagram>
</mxfile>
